<svg xmlns="http://www.w3.org/2000/svg" viewBox="0 0 75 75">
  <title>
    Github
  </title>
  <path fill="#fff" d="M-1-1h77v77H-1z" />
  <path
    fill="#3b3b3b"
    fill-rule="evenodd"
    d="M0 0h75v75H0V0zm22.4 9.8c2.3.8 6.2 3.2 6.6 3.2.6 0 1.7-.6 2.5-.6 1.7-.4 5.3-.4 5.8-.4 3.6 0 6.8.8 7.3.8.6 0 3.4-1.7 4.9-2.5a8 8 0 014.5-.8c.6 1.3 1.1 3.8 1.1 5.1l-.4 3c0 .6 1.3 2.1 1.9 3 1.5 2.1 2.1 5.3 2.1 7.6 0 .4-.4 4.3-.8 6.8l8.3.2 7.1.9s.2.2-.2.6a68 68 0 00-8.3-1.1h-7l-.6 1c5.1.9 10.7.8 16 2.6l-.2.4c-2.3-.8-11.9-2.3-12.8-2.3H57c-3.2 6-9.2 6.6-13.8 7.6 1 .4 2.6 3.4 2.6 4.5v10.4c.6 1.3 2.6 3.4 2.6 3.4 0 1-1.5.8-1.5.8-1.3 0-4.7-1.1-4.7-3.2v-9.3c-.2-.4-.4-1-.8-1.5l-.2 10.6c.2 1.3.2 2.5 1.3 3.6.2.2.4.2.4.6 0 .8-.8.8-1 .8-2.1 0-4.5-2.7-4.5-4.5l-.2-11.7h-.8v12.1c-.4 2.3-2.8 4.2-4.5 4.2-.6 0-.8-.4-.8-.8 0-.6 1.1-2.1 1.5-3.2L33 50c-.4.8-.8 1.7-.8 2.3v8.5a5.3 5.3 0 01-4.9 3.2 2 2 0 01-1.3-.6l2.6-3V54c-1.9 0-4 0-5.7-.4-.9-.2-1.7-.6-2.3-1.1-2.4-1.7-2.3-3.6-3.8-5.5-1-1.3-2.3-2.1-3-3.2a2 2 0 011.3-.6c4.9 0 4.3 6.4 10 6.4a10 10 0 003.6-1c.4-1.1.8-2.6 2.5-3.8-4.5-.9-10.2-1.7-13.9-7.6-5.3-.2-9.8.8-15.8 2.1V39c5.3-1.7 10.2-1.5 15.6-2.5l-.6-1h-7c-2.5.5-5.4.7-8 1.3v-.6c2.5-.4 4.9-.8 7.4-.9l7.7-.2a28 28 0 01-1.1-5.1v-3.6c.2-.4.2-.9.2-1.3.4-1.3.7-2.8 1.5-4 .4-.9 1.9-2.1 1.9-2.5 0-.6-.8-3.4-.8-4 0-.9.8-4.7 1.3-5.1.9.1 1.9-.1 2.8.3zm14.7 16.8l7.9-.4c4.7 0 8.1 2.4 8.1 7.4 0 10-10 9.4-15.5 9.4-5.8 0-16.4 0-16.4-9.8 0-4.9 4.3-7 8.1-7l7.8.4zM16.4 44.2c-.2 0-.6 0-.6-.2.2 0 .6 0 .6.2zm1.7.7c-.2.2-.4.2-.6.2l.2-.4.4.2zm.9 1.3c-.2 0-.6 0-.6-.2.2 0 .6 0 .6.2zm1 1.3c-.2 0-.6 0-.6-.2l.6.2zm.9 1.4c-.2 0-.6 0-.6-.2.2 0 .6 0 .6.2zm.7.9c.2-.2.4-.2.6 0-.2.2-.4.2-.6 0zm6.3.6c-.2 0-.6 0-.6-.2.2 0 .6 0 .6.2zm-4.4.2c.2-.2.6-.2.6 0h-.6zm1.9 0c.2-.2.6-.2.6 0h-.6zm11.9-9.7c.4 0 1.1-.6 1.5-1.1.2 0 .6-.2.6.2 0 1.1-1.9 1.7-2.1 1.7-.4 0-1.7-.6-1.9-1.1v-.8c.6.2 1.3 1.1 1.9 1.1zm-.9-2.8c0-.5.4-.8.9-.8s.8.4.8.8c0 .5-.4.9-.8.9a.9.9 0 01-.9-.9zm-9.9-4.3c0-1.7.9-3.1 2.1-3.1 1.1 0 2.1 1.4 2.1 3.1 0 1.7-.9 3.1-2.1 3.1-1.2.1-2.1-1.3-2.1-3.1zm-1.4 0c0-2.6 1.5-4.7 3.4-4.7s3.4 2.1 3.4 4.7-1.5 4.7-3.4 4.7c-1.8.1-3.4-2-3.4-4.7zm19.4 0c0-1.7.9-3.1 2.1-3.1 1.1 0 2.1 1.4 2.1 3.1 0 1.7-.9 3.1-2.1 3.1-1.1.1-2.1-1.3-2.1-3.1zm-1.3 0c0-2.6 1.5-4.7 3.4-4.7s3.4 2.1 3.4 4.7-1.5 4.7-3.4 4.7-3.4-2-3.4-4.7z"
    clip-rule="evenodd"
  />
</svg>
