<svg xmlns="http://www.w3.org/2000/svg" viewBox="0 0 75 75">
  <title>
    LinkedIn
  </title>
  <path fill="#fff" d="M-1-1h77v77H-1z" />
  <g>
    <path
      fill="#006699"
      fill-rule="evenodd"
      d="M0 0h75v75H0V0zm25.7 21.2c0 3.8-3.4 5-5.6 5-2.9 0-5.6-1.4-5.6-4.7 0-3.8 2.7-4.7 5.6-4.7 2.9 0 5.6.9 5.6 4.4zm35.1 19.4v18.2h-10V41.3C49.6 38 48.1 37 45.4 37c-3.2 0-5.6 2.6-5.6 5.2v16.5H30V30.5h9.8c0 1.2 0 2.6.2 3.8 2.7-4 6.1-4.5 9-4.5 7.1-.1 11.8 5.1 11.8 10.8zM24.9 30.5v28.3h-9.8V30.5h9.8z"
      clip-rule="evenodd"
    />
  </g>
</svg>
