<svg xmlns="http://www.w3.org/2000/svg" viewBox="0 0 75 75">
  <title>
    Twitter
  </title>
  <path fill="#fff" d="M-1-1h77v77H-1z" />
  <path
    fill="#33ccff"
    fill-rule="evenodd"
    d="M0 0h75v75H0V0zm66 36c-2 .3-4.9 0-6.5-.7 3.2-.3 5.4-1.7 6.2-3.7-1.2.7-4.7 1.5-6.7.7l-.3-1.3c-1.5-5.5-6.7-9.9-12.1-9.4l1.3-.5c.6-.2 4.1-.8 3.5-2-.4-1-4.6.9-5.4 1.2 1.1-.4 2.8-1.1 3-2.3-1.6.2-3.2 1-4.5 2.1.5-.5.8-1.1.9-1.7-4.3 2.8-6.9 8.3-8.9 13.7-1.6-1.5-3-2.8-4.3-3.4-3.6-1.9-7.9-3.9-14.6-6.4-.2 2.2 1.1 5.2 4.9 7.1-.8-.1-2.3.1-3.5.4.5 2.5 2.1 4.6 6.4 5.6-2 .1-3 .6-3.9 1.5.9 1.8 3.1 3.8 7 3.4-4.4 1.9-1.8 5.3 1.8 4.8a15.3 15.3 0 01-21.3.7c14.4 19.4 45.5 11.5 50.2-7.2A9 9 0 0066 36z"
    clip-rule="evenodd"
  />
</svg>
